<svg width="48" height="48" viewBox="0 0 48 48" fill="none" xmlns="http://www.w3.org/2000/svg">
<path d="M26.8199 24L35.4199 15.42C35.7965 15.0434 36.0081 14.5326 36.0081 14C36.0081 13.4674 35.7965 12.9566 35.4199 12.58C35.0433 12.2034 34.5325 11.9918 33.9999 11.9918C33.4673 11.9918 32.9565 12.2034 32.5799 12.58L23.9999 21.18L15.4199 12.58C15.0433 12.2034 14.5325 11.9918 13.9999 11.9918C13.4673 11.9918 12.9565 12.2034 12.5799 12.58C12.2033 12.9566 11.9917 13.4674 11.9917 14C11.9917 14.5326 12.2033 15.0434 12.5799 15.42L21.1799 24L12.5799 32.58C12.3924 32.7659 12.2436 32.9871 12.1421 33.2309C12.0406 33.4746 11.9883 33.736 11.9883 34C11.9883 34.264 12.0406 34.5254 12.1421 34.7692C12.2436 35.0129 12.3924 35.2341 12.5799 35.42C12.7658 35.6075 12.987 35.7563 13.2307 35.8578C13.4744 35.9593 13.7359 36.0116 13.9999 36.0116C14.2639 36.0116 14.5253 35.9593 14.769 35.8578C15.0128 35.7563 15.234 35.6075 15.4199 35.42L23.9999 26.82L32.5799 35.42C32.7658 35.6075 32.987 35.7563 33.2307 35.8578C33.4744 35.9593 33.7359 36.0116 33.9999 36.0116C34.2639 36.0116 34.5253 35.9593 34.769 35.8578C35.0128 35.7563 35.234 35.6075 35.4199 35.42C35.6073 35.2341 35.7561 35.0129 35.8577 34.7692C35.9592 34.5254 36.0115 34.264 36.0115 34C36.0115 33.736 35.9592 33.4746 35.8577 33.2309C35.7561 32.9871 35.6073 32.7659 35.4199 32.58L26.8199 24Z" fill="white"/>
</svg>
