<svg width="185" height="34" viewBox="0 0 185 34" fill="none" xmlns="http://www.w3.org/2000/svg">
<path fill-rule="evenodd" clip-rule="evenodd" d="M99.5754 10.8752C98.6863 10.3184 97.6231 10.04 96.386 10.04C95.0523 10.04 93.8587 10.3712 92.8052 11.0336C91.7517 11.696 90.9206 12.6464 90.3117 13.8848C89.7028 15.1232 89.3983 16.5872 89.3983 18.2768C89.3983 19.9472 89.7028 21.4064 90.3117 22.6544C90.9206 23.9024 91.7517 24.8576 92.8052 25.52C93.8587 26.1824 95.0523 26.5136 96.386 26.5136C97.6231 26.5136 98.6863 26.2352 99.5754 25.6784C100.465 25.1216 101.112 24.3632 101.518 23.4032V26.312H106.476V5H101.518V13.1504C101.112 12.1904 100.465 11.432 99.5754 10.8752ZM46.1094 26.312V19.1696H49.1828C50.7872 19.1696 52.1499 18.8864 53.2711 18.32C54.3922 17.7536 55.2379 16.976 55.8081 15.9872C56.3783 14.9984 56.6634 13.8704 56.6634 12.6032C56.6634 10.568 56.0256 8.95041 54.7498 7.7504C53.474 6.55039 51.6184 5.9504 49.1828 5.9504H41.1513V26.312H46.1094ZM51.6184 12.6032C51.6184 14.3504 50.6229 15.224 48.6319 15.224H46.1094V9.9248H48.6319C50.6229 9.9248 51.6184 10.8176 51.6184 12.6032ZM64.0571 13.2656C64.6756 12.2864 65.473 11.5088 66.4491 10.9328C67.4253 10.3568 68.4836 10.0688 69.624 10.0688V15.3392H68.2033C66.8889 15.3392 65.8692 15.6176 65.1444 16.1744C64.4195 16.7312 64.0571 17.672 64.0571 18.9968V26.312H59.099V10.2416H64.0571V13.2656ZM83.5849 11.0336C82.3188 10.3712 80.8836 10.04 79.2792 10.04C77.6749 10.04 76.2348 10.3712 74.959 11.0336C73.6833 11.696 72.683 12.6512 71.9581 13.8992C71.2332 15.1472 70.8708 16.6064 70.8708 18.2768C70.8708 19.9472 71.2332 21.4064 71.9581 22.6544C72.683 23.9024 73.6833 24.8576 74.959 25.52C76.2348 26.1824 77.6749 26.5136 79.2792 26.5136C80.8836 26.5136 82.3188 26.1824 83.5849 25.52C84.851 24.8576 85.8465 23.9024 86.5714 22.6544C87.2962 21.4064 87.6587 19.9472 87.6587 18.2768C87.6587 16.6064 87.2962 15.1472 86.5714 13.8992C85.8465 12.6512 84.851 11.696 83.5849 11.0336ZM79.2792 14.3024C78.3321 14.3024 77.5347 14.6432 76.8872 15.3248C76.2396 16.0064 75.9159 16.9904 75.9159 18.2768C75.9159 19.5632 76.2396 20.5424 76.8872 21.2144C77.5347 21.8864 78.3321 22.2224 79.2792 22.2224C80.2264 22.2224 81.0189 21.8864 81.6568 21.2144C82.2947 20.5424 82.6136 19.5632 82.6136 18.2768C82.6136 16.9904 82.2947 16.0064 81.6568 15.3248C81.0189 14.6432 80.2264 14.3024 79.2792 14.3024ZM97.9807 14.36C96.9176 14.36 96.0623 14.7056 95.4147 15.3968C94.7672 16.088 94.4434 17.048 94.4434 18.2768C94.4434 19.5056 94.7672 20.4656 95.4147 21.1568C96.0623 21.848 96.9176 22.1936 97.9807 22.1936C99.0246 22.1936 99.8799 21.8384 100.547 21.128C101.214 20.4176 101.547 19.4672 101.547 18.2768C101.547 17.0672 101.214 16.112 100.547 15.4112C99.8799 14.7104 99.0246 14.36 97.9807 14.36ZM121.002 26.312H125.99V10.2416H121.002V18.7664C121.002 19.9376 120.713 20.84 120.133 21.4736C119.553 22.1072 118.76 22.424 117.755 22.424C116.789 22.424 116.02 22.1216 115.45 21.5168C114.88 20.912 114.595 20.0624 114.595 18.968V10.2416H109.666V19.5728C109.666 21.7232 110.212 23.4128 111.304 24.6416C112.396 25.8704 113.87 26.4848 115.725 26.4848C116.943 26.4848 118.011 26.2064 118.929 25.6496C119.848 25.0928 120.539 24.344 121.002 23.4032V26.312ZM136.718 10.04C138.805 10.04 140.554 10.6112 141.966 11.7536C143.377 12.896 144.266 14.4656 144.633 16.4624H139.385C139.23 15.7712 138.911 15.2336 138.428 14.8496C137.945 14.4656 137.336 14.2736 136.602 14.2736C135.732 14.2736 135.017 14.6144 134.456 15.296C133.895 15.9776 133.615 16.9712 133.615 18.2768C133.615 19.5824 133.895 20.576 134.456 21.2576C135.017 21.9392 135.732 22.28 136.602 22.28C137.336 22.28 137.945 22.088 138.428 21.704C138.911 21.32 139.23 20.7824 139.385 20.0912H144.633C144.266 22.088 143.377 23.6576 141.966 24.8C140.554 25.9424 138.805 26.5136 136.718 26.5136C135.132 26.5136 133.726 26.1824 132.499 25.52C131.271 24.8576 130.31 23.9024 129.614 22.6544C128.918 21.4064 128.57 19.9472 128.57 18.2768C128.57 16.5872 128.913 15.1232 129.599 13.8848C130.286 12.6464 131.247 11.696 132.484 11.0336C133.721 10.3712 135.132 10.04 136.718 10.04ZM156.376 26.312V22.0784H154.81C154.192 22.0784 153.752 21.9536 153.491 21.704C153.23 21.4544 153.099 21.0128 153.099 20.3792V14.3888H156.347V10.2416H153.099V6.296H148.141V10.2416H145.967V14.3888H148.141V20.2928C148.141 22.4432 148.668 23.984 149.722 24.9152C150.775 25.8464 152.249 26.312 154.143 26.312H156.376ZM164.117 5V26.312H159.159V5H164.117ZM175.164 20.0912L171.279 10.2416H165.741L172.526 25.7072L168.728 33.9728H174.179L184.269 10.2416H178.789L175.164 20.0912Z" fill="#173A56"/>
<path d="M21.65 10.35C24.775 13.475 24.775 18.5375 21.65 21.6625C20.0875 23.225 20.0875 25.7625 21.65 27.3125C23.2125 28.875 25.75 28.875 27.3125 27.3125C33.5625 21.0625 33.5625 10.9375 27.3125 4.6875L21.65 10.35Z" fill="#EA4335"/>
<path d="M27.3 4.6875C21.05 -1.5625 10.9375 -1.5625 4.6875 4.6875C-1.5625 10.9375 -1.5625 21.0625 4.6875 27.3125L10.35 21.6625C7.225 18.5375 7.225 13.475 10.35 10.35C13.475 7.225 18.5375 7.225 21.6625 10.35C23.225 11.9125 25.7625 11.9125 27.325 10.35C28.8625 8.7875 28.8625 6.25 27.3 4.6875V4.6875Z" fill="url(#paint0_linear)"/>
<path d="M27.3 27.3123L21.6375 21.6624C18.5125 24.7873 13.45 24.7873 10.325 21.6624L4.66251 27.3123C10.9375 33.5623 21.05 33.5623 27.3 27.3123V27.3123Z" fill="#FBBC04"/>
<path d="M21.65 21.6624C23.2125 20.0999 25.7375 20.0999 27.3 21.6624C28.8625 23.2249 28.8625 25.7624 27.3 27.3249C25.7375 28.8874 23.2125 28.8874 21.65 27.3249C20.0875 25.7624 20.0875 23.2249 21.65 21.6624Z" fill="#EA4335"/>
<path d="M4.6875 21.6624C6.25 20.0999 8.775 20.0999 10.3375 21.6624C11.9 23.2249 11.9 25.7624 10.3375 27.3249C8.775 28.8874 6.25 28.8874 4.6875 27.3249C3.125 25.7624 3.125 23.2249 4.6875 21.6624Z" fill="#34A853"/>
<defs>
<linearGradient id="paint0_linear" x1="0" y1="13.6562" x2="28.4747" y2="13.6562" gradientUnits="userSpaceOnUse">
<stop stop-color="#246FDB"/>
<stop offset="0.0552" stop-color="#2973DF"/>
<stop offset="0.2781" stop-color="#377DEB"/>
<stop offset="0.5491" stop-color="#3F83F2"/>
<stop offset="1" stop-color="#4285F4"/>
</linearGradient>
</defs>
</svg>
