<svg width="185" height="34" fill="none" xmlns="http://www.w3.org/2000/svg"><path fill-rule="evenodd" clip-rule="evenodd" d="M99.575 10.875c-.889-.557-1.952-.835-3.189-.835-1.334 0-2.527.331-3.58.994-1.054.662-1.885 1.612-2.494 2.85-.61 1.24-.914 2.703-.914 4.393 0 1.67.305 3.13.914 4.377.609 1.248 1.44 2.204 2.493 2.866 1.054.662 2.247.994 3.581.994 1.237 0 2.3-.279 3.19-.836a4.857 4.857 0 001.942-2.275v2.909h4.958V5h-4.958v8.15a4.857 4.857 0 00-1.943-2.275zM46.11 26.312V19.17h3.074c1.604 0 2.967-.284 4.088-.85 1.121-.566 1.967-1.344 2.537-2.333.57-.989.855-2.117.855-3.384 0-2.035-.637-3.653-1.913-4.853-1.276-1.2-3.132-1.8-5.567-1.8H41.15v20.362h4.958zm5.51-13.709c0 1.747-.996 2.621-2.987 2.621H46.11v-5.3h2.523c1.99 0 2.986.894 2.986 2.68zm12.438.663a7.013 7.013 0 012.392-2.333 6.138 6.138 0 013.175-.864v5.27h-1.42c-1.315 0-2.335.279-3.06.835-.725.557-1.087 1.498-1.087 2.823v7.315H59.1v-16.07h4.958v3.024zm19.528-2.232c-1.266-.663-2.701-.994-4.306-.994-1.604 0-3.044.331-4.32.994a7.29 7.29 0 00-3 2.865c-.726 1.248-1.088 2.707-1.088 4.378 0 1.67.362 3.13 1.087 4.377a7.29 7.29 0 003.001 2.866c1.276.662 2.716.994 4.32.994 1.605 0 3.04-.332 4.306-.994a7.312 7.312 0 002.986-2.866c.725-1.248 1.088-2.707 1.088-4.377s-.363-3.13-1.088-4.378a7.312 7.312 0 00-2.986-2.865zm-4.306 3.268c-.947 0-1.744.341-2.392 1.023-.647.681-.971 1.665-.971 2.952 0 1.286.324 2.265.971 2.937.648.672 1.445 1.008 2.392 1.008.947 0 1.74-.336 2.378-1.008.638-.672.957-1.65.957-2.937s-.32-2.27-.957-2.952c-.638-.682-1.43-1.023-2.378-1.023zm18.702.058c-1.063 0-1.919.346-2.566 1.037-.648.691-.972 1.651-.972 2.88 0 1.229.324 2.189.972 2.88.647.691 1.503 1.037 2.566 1.037 1.044 0 1.899-.356 2.566-1.066.667-.71 1-1.66 1-2.851 0-1.21-.333-2.165-1-2.866-.667-.7-1.522-1.051-2.566-1.051zm23.021 11.952h4.988v-16.07h-4.988v8.524c0 1.172-.289 2.074-.869 2.708-.58.633-1.373.95-2.378.95-.966 0-1.735-.302-2.305-.907-.57-.605-.855-1.455-.855-2.549v-8.726h-4.929v9.33c0 2.151.546 3.84 1.638 5.07 1.092 1.228 2.566 1.843 4.421 1.843 1.218 0 2.286-.279 3.204-.835a5.341 5.341 0 002.073-2.247v2.909zm15.716-16.272c2.087 0 3.836.571 5.248 1.714 1.411 1.142 2.3 2.712 2.667 4.708h-5.248c-.155-.69-.474-1.228-.957-1.612-.483-.384-1.092-.576-1.826-.576-.87 0-1.585.34-2.146 1.022-.561.682-.841 1.675-.841 2.98 0 1.306.28 2.3.841 2.982.561.681 1.276 1.022 2.146 1.022.734 0 1.343-.192 1.826-.576.483-.384.802-.922.957-1.613h5.248c-.367 1.997-1.256 3.567-2.667 4.709-1.412 1.142-3.161 1.714-5.248 1.714-1.586 0-2.992-.332-4.219-.994-1.228-.662-2.189-1.618-2.885-2.866-.696-1.248-1.044-2.707-1.044-4.377 0-1.69.343-3.154 1.029-4.392a7.036 7.036 0 012.885-2.851c1.237-.663 2.648-.994 4.234-.994zm19.658 16.272v-4.234h-1.566c-.618 0-1.058-.124-1.319-.374-.261-.25-.392-.691-.392-1.325v-5.99h3.248v-4.147H153.1V6.296h-4.958v3.946h-2.174v4.147h2.174v5.904c0 2.15.527 3.691 1.581 4.622 1.053.931 2.527 1.397 4.421 1.397h2.233zM164.117 5v21.312h-4.958V5h4.958zm11.047 15.091l-3.885-9.85h-5.538l6.785 15.466-3.798 8.266h5.451l10.09-23.731h-5.48l-3.625 9.85z" fill="#173A56"/><path d="M21.65 10.35a7.997 7.997 0 010 11.313c-1.563 1.562-1.563 4.1 0 5.65a4.006 4.006 0 005.663 0c6.25-6.25 6.25-16.375 0-22.625L21.65 10.35z" fill="#EA4335"/><path d="M27.3 4.688c-6.25-6.25-16.363-6.25-22.613 0s-6.25 16.375 0 22.625l5.663-5.65a7.997 7.997 0 010-11.313 7.997 7.997 0 0111.313 0 4.006 4.006 0 005.662 0 4.03 4.03 0 00-.025-5.662z" fill="url(#paint0_linear)"/><path d="M27.3 27.312l-5.663-5.65a7.997 7.997 0 01-11.312 0l-5.662 5.65c6.274 6.25 16.387 6.25 22.637 0z" fill="#FBBC04"/><path d="M21.65 21.662a3.991 3.991 0 015.65 0 4.006 4.006 0 010 5.663 3.991 3.991 0 01-5.65 0 4.006 4.006 0 010-5.663z" fill="#EA4335"/><path d="M4.688 21.662a3.991 3.991 0 015.65 0 4.006 4.006 0 010 5.663 3.991 3.991 0 01-5.65 0 4.006 4.006 0 010-5.663z" fill="#34A853"/><defs><linearGradient id="paint0_linear" x1="0" y1="13.656" x2="28.475" y2="13.656" gradientUnits="userSpaceOnUse"><stop stop-color="#246FDB"/><stop offset=".055" stop-color="#2973DF"/><stop offset=".278" stop-color="#377DEB"/><stop offset=".549" stop-color="#3F83F2"/><stop offset="1" stop-color="#4285F4"/></linearGradient></defs></svg>